<svg width="21" height="21" viewBox="0 0 21 21" fill="none" xmlns="http://www.w3.org/2000/svg">
<path d="M6.5625 19.6875C7.28737 19.6875 7.875 19.0999 7.875 18.375C7.875 17.6501 7.28737 17.0625 6.5625 17.0625C5.83763 17.0625 5.25 17.6501 5.25 18.375C5.25 19.0999 5.83763 19.6875 6.5625 19.6875Z" fill="#C2C2C2"/>
<path d="M15.75 19.6875C16.4749 19.6875 17.0625 19.0999 17.0625 18.375C17.0625 17.6501 16.4749 17.0625 15.75 17.0625C15.0251 17.0625 14.4375 17.6501 14.4375 18.375C14.4375 19.0999 15.0251 19.6875 15.75 19.6875Z" fill="#C2C2C2"/>
<path d="M18.375 4.59376H3.81938L3.28125 1.83751C3.25057 1.68705 3.1681 1.55211 3.04819 1.45618C2.92828 1.36026 2.77853 1.30942 2.625 1.31251H0V2.62501H2.08687L4.59375 15.225C4.62443 15.3755 4.7069 15.5104 4.82681 15.6063C4.94672 15.7023 5.09647 15.7531 5.25 15.75H17.0625V14.4375H5.78813L5.25 11.8125H17.0625C17.2142 11.8162 17.3625 11.7672 17.4821 11.6739C17.6018 11.5806 17.6854 11.4487 17.7188 11.3006L19.0312 5.39439C19.0532 5.29702 19.0527 5.19591 19.0298 5.09877C19.0068 5.00162 18.9619 4.911 18.8987 4.8338C18.8354 4.7566 18.7553 4.69485 18.6646 4.65325C18.5738 4.61165 18.4748 4.59131 18.375 4.59376ZM16.5375 10.5H5.00063L4.08187 5.90626H17.5547L16.5375 10.5Z" fill="#C2C2C2"/>
</svg>
