<svg width="32" height="32" viewBox="0 0 32 32" fill="none" xmlns="http://www.w3.org/2000/svg">
<path d="M19.9584 15.9998C19.9584 14.95 19.5414 13.9432 18.799 13.2009C18.0567 12.4585 17.0499 12.0415 16.0001 12.0415C14.9503 12.0415 13.9434 12.4585 13.2011 13.2009C12.4588 13.9432 12.0417 14.95 12.0417 15.9998C12.0417 17.5832 12.9759 18.9132 14.3059 19.5623L12.5484 21.304C11.4051 20.5594 10.5328 19.4654 10.0616 18.1849C9.59045 16.9044 9.5455 15.5059 9.93349 14.1978C10.3215 12.8897 11.1216 11.7419 12.2148 10.9254C13.308 10.1089 14.6356 9.66732 16.0001 9.6665C17.3645 9.66732 18.6922 10.1089 19.7854 10.9254C20.8785 11.7419 21.6787 12.8897 22.0667 14.1978C22.4547 15.5059 22.4097 16.9044 21.9385 18.1849C21.4673 19.4654 20.5951 20.5594 19.4517 21.304L17.7101 19.5623C19.0401 18.9132 19.9584 17.5832 19.9584 15.9998ZM16.0001 0.166504C7.29175 0.166504 0.166748 7.2915 0.166748 15.9998C0.166748 20.8448 2.35175 25.1832 5.77175 28.0807L7.46591 26.4023C4.45758 23.9165 2.54175 20.1798 2.54175 15.9998C2.54175 8.574 8.57425 2.5415 16.0001 2.5415C23.4259 2.5415 29.4584 8.574 29.4584 15.9998C29.4584 20.1798 27.5426 23.9165 24.5342 26.4023L26.2284 28.0807C29.6484 25.1673 31.8334 20.8448 31.8334 15.9998C31.8334 7.2915 24.7084 0.166504 16.0001 0.166504ZM27.0834 15.9998C27.0834 9.87234 22.1276 4.9165 16.0001 4.9165C13.6952 4.91508 11.4472 5.63279 9.56961 6.9696C7.69198 8.30642 6.2782 10.1957 5.52532 12.3742C4.77243 14.5527 4.71797 16.9118 5.36951 19.1227C6.02106 21.3336 7.34614 23.2861 9.16008 24.7082L10.8542 23.014C8.70091 21.4148 7.29175 18.8815 7.29175 15.9998C7.29175 11.2023 11.2026 7.2915 16.0001 7.2915C20.7976 7.2915 24.7084 11.2023 24.7084 15.9998C24.7084 18.8815 23.2992 21.4148 21.1459 23.014L22.8559 24.7082C24.173 23.6707 25.2378 22.348 25.97 20.8396C26.7022 19.3313 27.0829 17.6765 27.0834 15.9998ZM6.50008 31.8332H25.5001L16.0001 22.3332L6.50008 31.8332Z" fill="#8E8E8E"/>
</svg>
