<svg width="44" height="44" viewBox="0 0 44 44" fill="none" xmlns="http://www.w3.org/2000/svg">
<path d="M37.125 15.125H35.75V13.75C35.75 13.0207 35.4603 12.3212 34.9445 11.8055C34.4288 11.2897 33.7293 11 33 11H27.5V13.75H33V17.875H37.125V26.125H33V30.25H26.125V33H33C33.7293 33 34.4288 32.7103 34.9445 32.1945C35.4603 31.6788 35.75 30.9793 35.75 30.25V28.875H37.125C37.8543 28.875 38.5538 28.5853 39.0695 28.0695C39.5853 27.5538 39.875 26.8543 39.875 26.125V17.875C39.875 17.1457 39.5853 16.4462 39.0695 15.9305C38.5538 15.4147 37.8543 15.125 37.125 15.125Z" fill="#8E8E8E"/>
<path d="M15.125 30.25H8.25V13.75H16.5V11H8.25C7.52065 11 6.82118 11.2897 6.30546 11.8055C5.78973 12.3212 5.5 13.0207 5.5 13.75V30.25C5.5 30.9793 5.78973 31.6788 6.30546 32.1945C6.82118 32.7103 7.52065 33 8.25 33H15.125V30.25Z" fill="#8E8E8E"/>
<path d="M20.3628 32.4225L18.1353 30.8275L23.4566 23.375H12.8828L22.3016 11.5225L24.4466 13.2275L18.5753 20.625H28.7916L20.3628 32.4225Z" fill="#8E8E8E"/>
</svg>
