<svg width="37" height="37" viewBox="0 0 37 37" fill="none" xmlns="http://www.w3.org/2000/svg">
<path d="M13.2122 24.6668H15.4168C15.4168 20.4118 11.9635 16.9585 7.7085 16.9585V19.1631C10.7456 19.1631 13.2122 21.6297 13.2122 24.6668Z" fill="#8E8E8E"/>
<path d="M17.8064 24.6668H20.0418C20.0418 17.8527 14.5072 12.3335 7.7085 12.3335V14.5689C13.2739 14.5689 17.8064 19.086 17.8064 24.6668ZM7.7085 21.5835V24.6668H10.7918C10.7918 22.9556 9.41975 21.5835 7.7085 21.5835Z" fill="#8E8E8E"/>
<path d="M33.9168 4.625H3.0835V29.2917H12.3335V32.375H24.6668V29.2917H33.9168V4.625ZM30.8335 26.2083H6.16683V7.70833H30.8335V26.2083Z" fill="#8E8E8E"/>
</svg>
