<svg width="40" height="40" viewBox="0 0 40 40" fill="none" xmlns="http://www.w3.org/2000/svg">
<path d="M5.41683 20.0002C5.41683 11.946 11.946 5.41683 20.0002 5.41683C28.0543 5.41683 34.5835 11.946 34.5835 20.0002V23.3335H30.2085C29.6335 23.3335 29.1668 23.8002 29.1668 24.3752V35.6252C29.1668 36.2002 29.6335 36.6668 30.2085 36.6668H31.8752C33.146 36.6668 34.3648 36.162 35.2634 35.2634C36.162 34.3648 36.6668 33.146 36.6668 31.8752V20.0002C36.6668 10.7952 29.2052 3.3335 20.0002 3.3335C10.7952 3.3335 3.3335 10.7952 3.3335 20.0002V31.8752C3.3335 33.146 3.83833 34.3648 4.73694 35.2634C5.63555 36.162 6.85433 36.6668 8.12516 36.6668H9.79183C10.3668 36.6668 10.8335 36.2002 10.8335 35.6252V24.3752C10.8335 23.8002 10.3668 23.3335 9.79183 23.3335H5.41683V20.0002ZM31.2502 25.4168H34.5835V31.8752C34.5835 32.5935 34.2982 33.2823 33.7902 33.7902C33.2823 34.2982 32.5935 34.5835 31.8752 34.5835H31.2502V25.4168ZM5.41683 25.4168H8.75016V34.5835H8.12516C7.40687 34.5835 6.71799 34.2982 6.21008 33.7902C5.70217 33.2823 5.41683 32.5935 5.41683 31.8752V25.4168ZM18.9585 19.3752V37.2918C18.9585 37.5681 19.0682 37.833 19.2636 38.0284C19.4589 38.2238 19.7239 38.3335 20.0002 38.3335C20.2764 38.3335 20.5414 38.2238 20.7367 38.0284C20.9321 37.833 21.0418 37.5681 21.0418 37.2918V19.3752C21.0418 19.0989 20.9321 18.8339 20.7367 18.6386C20.5414 18.4432 20.2764 18.3335 20.0002 18.3335C19.7239 18.3335 19.4589 18.4432 19.2636 18.6386C19.0682 18.8339 18.9585 19.0989 18.9585 19.3752ZM15.2085 23.3335C15.7835 23.3335 16.2502 23.8002 16.2502 24.3752V32.2918C16.2502 32.5681 16.1404 32.833 15.9451 33.0284C15.7497 33.2237 15.4848 33.3335 15.2085 33.3335C14.9322 33.3335 14.6673 33.2237 14.4719 33.0284C14.2766 32.833 14.1668 32.5681 14.1668 32.2918V24.3752C14.1668 23.8002 14.6335 23.3335 15.2085 23.3335ZM25.8335 24.3752C25.8335 24.0989 25.7238 23.8339 25.5284 23.6386C25.333 23.4432 25.0681 23.3335 24.7918 23.3335C24.5156 23.3335 24.2506 23.4432 24.0553 23.6386C23.8599 23.8339 23.7502 24.0989 23.7502 24.3752V32.2918C23.7502 32.5681 23.8599 32.833 24.0553 33.0284C24.2506 33.2237 24.5156 33.3335 24.7918 33.3335C25.0681 33.3335 25.333 33.2237 25.5284 33.0284C25.7238 32.833 25.8335 32.5681 25.8335 32.2918V24.3752Z" fill="#8E8E8E"/>
</svg>
