<svg width="95" height="25" viewBox="0 0 95 25" fill="none" xmlns="http://www.w3.org/2000/svg">
<path fill-rule="evenodd" clip-rule="evenodd" d="M28.7459 22.5606C31.5327 22.0121 33.2042 19.1185 33.6604 16.3288C33.7613 15.625 32.9004 15.2858 32.2418 15.5985C31.6589 15.8857 31.4055 16.094 30.6455 16.7194C29.2269 17.8932 28.3402 19.4571 27.9854 21.3343C27.8592 21.9607 28.3407 22.6391 28.7459 22.5606ZM48.2635 23.0551C48.9862 23.2644 49.568 22.6385 49.7457 22.0651C50.1 20.8393 49.8976 19.4842 49.4419 18.3628C49.2385 18.5446 47.6937 20.4482 47.187 21.152C46.8832 21.5696 47.4656 22.8208 48.2635 23.0551ZM66.1096 22.0905C66.2872 22.7424 67.1229 22.6391 67.5786 22.4297C69.8587 21.3868 71.455 18.676 71.5812 16.1465C71.6069 15.6255 70.8974 15.3648 70.3402 15.5736C68.9973 16.0945 68.0859 17.0856 67.2501 18.3363C66.4649 19.4842 65.78 20.7349 66.1096 22.0905ZM86.9579 15.9647C86.9837 16.0432 89.238 14.1915 90.6309 12.3928C91.9996 10.5935 92.6572 8.66393 92.6572 8.66393C92.6572 8.66393 91.1124 9.83727 89.6685 11.6365C87.9461 13.8263 86.9579 15.9647 86.9579 15.9647ZM41.5635 12.7839L41.614 12.7054C42.2221 11.8448 42.4502 10.6455 41.6392 10.2284C41.5378 10.1765 41.3606 10.5151 41.3102 10.7499C41.1078 11.4537 41.1583 12.158 41.5635 12.7839ZM40.322 14.7546C39.5368 13.268 39.1567 11.5586 39.8158 9.99415C40.4492 8.45566 42.7288 7.88224 43.5645 9.60304C44.5022 11.5321 43.1593 13.201 42.754 13.9832C42.6273 14.218 43.8179 13.8793 44.2741 13.8793C45.186 13.8268 45.7179 14.766 45.2875 15.4952C43.8688 17.8418 41.5131 19.5112 41.2092 22.3259C41.133 23.0307 42.8555 22.665 44.908 20.8923C44.959 20.8404 48.6062 16.252 51.393 12.7325C52.0263 11.9503 54.1535 12.7584 53.4697 13.8014C52.862 14.714 52.2544 15.4173 51.8744 15.9658C51.3415 16.774 52.7102 17.3214 52.583 20.3979C53.6221 19.5632 55.2941 18.4423 55.3445 18.3639C57.0927 14.6096 58.9418 10.2554 60.6642 6.39677C61.0942 5.43224 63.4258 5.92722 62.8928 7.15249C61.7848 9.74746 60.7041 12.3547 59.6508 14.9737C59.6004 15.0781 61.4999 13.8263 61.6771 13.7484C62.9943 13.3054 63.5514 14.5041 63.7538 15.3648C64.2105 17.3723 62.1328 20.0836 61.1452 22.0126C60.8918 22.4827 61.4747 22.2474 61.7028 22.0911C62.4124 21.6486 63.5772 20.5272 63.6019 20.4228C65.2996 15.704 70.8979 11.9757 73.0261 14.7394C73.178 14.5047 73.4061 14.1395 73.4313 14.1136C73.9117 13.618 75.8623 13.7744 75.5585 14.7129C75.5585 14.766 73.5322 18.8588 72.4931 20.9448C72.265 21.4138 72.5189 22.7175 73.178 22.222C74.2171 21.4657 75.7361 19.8488 75.7866 19.667C76.9776 16.1995 80.9297 9.15999 86.1984 6.26585C87.0857 5.7963 88.7566 6.37026 88.2247 7.85574C86.3903 12.8482 84.2311 15.0435 80.9812 17.5221C80.9218 17.5665 80.8835 17.5898 80.8435 17.6184C80.1586 18.1107 78.1639 19.3214 78.0667 19.7455C78.0667 19.8239 77.6367 21.2044 77.8643 21.8828C78.1939 22.9258 79.2073 22.796 79.941 22.2474C82.6768 20.2145 83.716 17.0596 85.4642 14.192C86.8817 11.8713 88.4281 9.89029 90.6824 8.03912C91.7205 7.179 92.7591 6.03162 94.1278 6.21393C94.7354 6.29237 95.065 6.94422 94.9893 7.3613C93.9502 11.7409 91.392 14.635 88.7571 16.8513C87.5419 17.8678 86.3262 18.7544 85.236 19.5626C84.958 19.7709 84.2742 23.682 87.0604 22.3253C88.4034 21.6745 89.7705 19.6405 90.5815 18.6241C90.9868 18.102 91.6963 18.8058 91.3668 19.5107C90.5311 21.231 89.4162 22.6645 87.8956 23.8638C86.7819 24.7769 85.3885 25.2205 84.0708 24.672C83.0574 24.2555 82.7031 23.1865 82.424 22.2734C81.4364 23.4473 80.0682 24.4372 78.6244 24.8543C76.37 25.5062 75.4586 23.8378 75.4329 22.4822C74.0142 23.655 71.3042 26.6005 69.9355 23.4987C68.3907 24.3853 65.6045 26.2878 63.7296 23.1075C62.4371 23.9942 60.968 25.5575 59.4989 24.593C58.536 23.9677 58.1061 22.8463 58.5618 21.8303C59.3728 20.0311 60.9423 17.1105 61.0442 16.9287C61.2466 16.563 60.7147 16.3547 60.4109 16.616C59.1195 17.6844 58.0803 18.544 58.0304 18.6755C57.3713 20.162 56.1802 22.8203 55.5227 24.2549C55.1427 25.115 53.5722 25.0885 53.1669 24.4632C52.584 23.5766 53.395 22.7419 53.7488 21.9337C51.9759 23.1595 50.7349 24.5146 48.8353 24.8538C47.3405 25.141 45.719 24.4892 45.1361 23.0291C43.3627 23.9936 41.3617 25.7918 39.4868 24.3328C37.8658 23.081 38.7016 19.9521 42.4507 16.2238C42.5228 16.1486 42.5228 16.0789 42.4507 16.0156L41.8684 15.7808C40.5002 17.7099 37.511 22.4032 35.6619 23.681C33.6609 25.0366 32.3438 25.4012 31.4318 23.7064C29.4056 25.1929 26.7202 25.4537 25.6306 23.1075L25.6054 23.133C24.1363 24.3334 22.9963 25.2449 20.5895 24.7759C19.4242 24.5411 18.8161 23.4202 18.6894 22.2994C18.5123 20.5001 18.8161 18.6755 19.0442 16.9022C17.5499 19.535 16.1055 22.4817 14.0031 24.7239C13.6231 25.0885 12.3821 24.8273 12.5088 24.124C13.0154 21.1785 14.586 17.085 14.4088 14.3472C12.2806 19.0925 9.08913 26.627 2.73081 24.4367C-1.72743 22.8982 -0.68882 14.582 5.56753 17.137C6.30181 17.4496 5.87186 18.8318 5.21327 18.5705C2.17313 17.3198 1.48931 22.4817 4.57991 22.6899C6.53045 22.8198 7.87287 21.5425 8.50623 20.5261C12.6102 14.0865 13.8512 7.88116 18.6642 0.424578C19.3228 -0.617851 21.02 0.450545 20.4628 1.57195C19.6776 3.13641 18.9938 4.88317 18.3346 7.07297C17.6004 9.54948 17.1951 11.8437 17.2203 14.3727C20.5385 9.3147 23.7558 4.36114 28.3659 0.26824C28.5688 0.0859367 28.9993 0.137871 29.2779 0.242276C29.7593 0.398613 29.8355 0.997997 29.6069 1.33718C24.7686 9.13294 20.158 17.1099 21.2476 21.8552C21.5009 22.8728 22.1343 22.6634 22.9195 22.5336C23.6791 22.4038 25.4782 20.8123 25.6301 20.4217C26.7696 17.3198 29.0755 14.8168 32.2166 14.0086C33.2552 13.7219 34.319 13.9826 35.1043 14.7389C35.5347 13.8263 36.7762 13.6959 37.3844 14.3738C37.511 14.5306 37.4853 14.9217 37.3844 15.13C36.2443 17.3469 35.2562 19.3014 34.1161 21.3868C34.0399 21.5431 34.2176 21.8823 34.4709 21.8038C36.1424 21.2569 38.3972 17.6476 40.322 14.7546ZM79.8648 16.0821C79.9153 16.1211 81.993 14.635 83.3859 12.9662C84.5007 11.6365 85.944 8.76888 85.8684 8.66447C85.7422 8.61254 84.1212 10.151 82.6511 11.8713C81.5373 13.2004 79.8648 16.068 79.8648 16.0821Z" fill="white"/>
</svg>
