<svg width="57" height="57" viewBox="0 0 57 57" fill="none" xmlns="http://www.w3.org/2000/svg">
<path d="M15.1895 26.0498C14.1218 26.0498 13.3033 26.3929 13.3033 26.3929L13.0773 27.7352C13.0773 27.7352 13.7524 27.4607 14.7748 27.4607C15.355 27.4607 15.7789 27.5253 15.7789 27.9966C15.7789 28.2832 15.7274 28.3891 15.7274 28.3891C15.7274 28.3891 15.2703 28.3518 15.0583 28.3518C13.711 28.3518 12.2961 28.925 12.2961 30.6599C12.2961 32.0263 13.2236 32.3382 13.7999 32.3382C14.8989 32.3382 15.3732 31.6257 15.3974 31.6237L15.346 32.2191H16.7175L17.3291 27.93C17.328 26.1083 15.7406 26.0498 15.1895 26.0498ZM14.4205 31.0333C13.9371 31.0333 13.811 30.6649 13.811 30.4449C13.811 30.019 14.0421 29.5063 15.1835 29.5063C15.4499 29.5073 15.4782 29.5346 15.5226 29.5427C15.5529 29.8051 15.3591 31.0333 14.4205 31.0333Z" fill="#5E5E5E"/>
<path d="M20.1429 27.4876C20.3619 27.4876 21.2066 27.5572 21.2066 27.5572L21.4034 26.1827C21.4034 26.1827 20.8564 26.0605 19.9663 26.0605C18.8138 26.0605 17.6451 26.5207 17.6451 28.0941C17.6451 29.8784 19.5949 29.6967 19.5949 30.4496C19.5949 30.9502 19.0499 30.9915 18.6301 30.9915C17.9025 30.9915 17.2485 30.7433 17.2465 30.7534L17.0386 32.1168C17.0759 32.1269 17.4796 32.3065 18.7865 32.3065C19.1367 32.3065 21.142 32.3974 21.142 30.3275C21.142 28.3918 19.2861 28.7743 19.2861 27.9962C19.2861 27.6087 19.5878 27.4876 20.1429 27.4876Z" fill="#5E5E5E"/>
<path d="M23.4198 27.6637H24.2443L24.4431 26.1983H23.666L23.8245 25.29H22.2673C22.233 25.3233 21.3479 30.4128 21.3479 31.0304C21.3479 31.9498 21.8636 32.3575 22.5892 32.3504C23.1574 32.3464 23.6005 32.189 23.7569 32.1456L23.9517 30.8215C23.8447 30.8215 23.6882 30.8679 23.55 30.8679C23.008 30.8679 22.9485 30.5783 22.9828 30.3653L23.4198 27.6637Z" fill="#5E5E5E"/>
<path d="M29.9459 19.1621H27.1665C26.7931 19.6667 26.4419 20.2036 26.124 20.7284H31.0823C30.7381 20.1814 30.3576 19.6586 29.9459 19.1621Z" fill="#5E5E5E"/>
<path d="M51.6322 36.7808C51.6019 36.7354 51.5767 36.7011 51.5565 36.6799C51.5454 36.6698 51.5313 36.6587 51.5131 36.6537C51.5565 36.6506 51.5928 36.6345 51.6191 36.6072C51.6443 36.58 51.6584 36.5477 51.6584 36.5104C51.6584 36.4841 51.6503 36.4589 51.6352 36.4357C51.6201 36.4125 51.5979 36.3953 51.5706 36.3862C51.5454 36.3761 51.502 36.3711 51.4424 36.3711H51.2668V36.8807H51.3496V36.6648H51.397C51.4253 36.6648 51.4485 36.6708 51.4616 36.6829C51.4828 36.7001 51.5131 36.7395 51.5484 36.801L51.5928 36.8817H51.6947L51.6322 36.7808ZM51.4485 36.5972H51.3476V36.4438H51.4424C51.4818 36.4438 51.508 36.4468 51.5232 36.4528C51.5393 36.4589 51.5494 36.468 51.5585 36.4791C51.5666 36.4912 51.5706 36.5043 51.5706 36.5184C51.5706 36.5416 51.5625 36.5618 51.5454 36.576C51.5282 36.5891 51.4949 36.5972 51.4485 36.5972Z" fill="#5E5E5E"/>
<path d="M31.925 22.2646H25.2572C24.8313 23.071 24.5487 23.6806 24.469 23.8319H32.5568C32.3741 23.293 32.1642 22.7713 31.925 22.2646Z" fill="#5E5E5E"/>
<path d="M10.3877 24.8096L8.85271 29.3611L8.77298 24.8096H6.50024L5.25488 32.2262H6.75759L7.70524 26.6352L7.84451 32.2262H8.9173L10.9186 26.6352L10.0315 32.2262H11.626L12.8542 24.8096H10.3877Z" fill="#5E5E5E"/>
<path d="M40.4379 26.0498C39.3681 26.0498 38.5507 26.3929 38.5507 26.3929L38.3236 27.7352C38.3236 27.7352 38.9998 27.4607 40.0211 27.4607C40.6014 27.4607 41.0263 27.5253 41.0263 27.9966C41.0263 28.2832 40.9728 28.3891 40.9728 28.3891C40.9728 28.3891 40.5166 28.3518 40.3027 28.3518C38.9564 28.3518 37.5425 28.925 37.5425 30.6599C37.5425 32.0263 38.4709 32.3382 39.0462 32.3382C40.1442 32.3382 40.6185 31.6257 40.6438 31.6237L40.5923 32.2191H41.9628L42.5744 27.93C42.5774 26.1083 40.9889 26.0498 40.4379 26.0498ZM39.6709 31.0333C39.1865 31.0333 39.0613 30.6649 39.0613 30.4449C39.0613 30.019 39.2924 29.5063 40.4339 29.5063C40.6993 29.5073 40.7275 29.5346 40.7729 29.5427C40.8022 29.8051 40.6074 31.0333 39.6709 31.0333Z" fill="#5E5E5E"/>
<path d="M51.6814 31.5428C51.64 31.4661 51.5794 31.4076 51.5038 31.3672C51.4291 31.3258 51.3524 31.3057 51.2716 31.3057C51.1939 31.3067 51.1162 31.3269 51.0395 31.3672C50.9638 31.4076 50.9053 31.4661 50.8629 31.5428C50.8205 31.6185 50.7993 31.6972 50.7993 31.779C50.7993 31.8607 50.8205 31.9384 50.8629 32.0131C50.9043 32.0878 50.9628 32.1473 51.0375 32.1897C51.1132 32.2311 51.1909 32.2523 51.2716 32.2523C51.3544 32.2523 51.4331 32.2311 51.5068 32.1897C51.5815 32.1473 51.64 32.0878 51.6814 32.0131C51.7248 31.9384 51.7439 31.8607 51.7439 31.779C51.7439 31.6952 51.7238 31.6165 51.6814 31.5428ZM51.6158 31.9738C51.5815 32.0363 51.533 32.0838 51.4694 32.1211C51.4069 32.1554 51.3423 32.1736 51.2747 32.1736C51.206 32.1736 51.1404 32.1554 51.0789 32.1211C51.0153 32.0858 50.9679 32.0373 50.9315 31.9738C50.8952 31.9102 50.879 31.8456 50.879 31.778C50.879 31.7104 50.8962 31.6448 50.9335 31.5812C50.9689 31.5186 51.0163 31.4702 51.0809 31.4348C51.1455 31.3995 51.2091 31.3844 51.2747 31.3844C51.3403 31.3844 51.4048 31.4005 51.4664 31.4348C51.531 31.4702 51.5784 31.5176 51.6138 31.5812C51.6491 31.6448 51.6683 31.7104 51.6683 31.778C51.6683 31.8456 51.6511 31.9112 51.6158 31.9738Z" fill="#5E5E5E"/>
<path d="M51.4323 31.939C51.403 31.8916 51.3768 31.8583 51.3576 31.8381C51.3455 31.827 51.3324 31.8179 51.3142 31.8119C51.3576 31.8088 51.3929 31.7927 51.4191 31.7655C51.4444 31.7392 51.4595 31.7049 51.4595 31.6686C51.4595 31.6433 51.4514 31.6171 51.4353 31.5939C51.4191 31.5717 51.398 31.5545 51.3727 31.5444C51.3475 31.5343 51.3031 31.5293 51.2435 31.5293H51.0659V32.0379H51.1487V31.822H51.1961C51.2254 31.822 51.2486 31.828 51.2627 31.8391C51.2839 31.8573 51.3122 31.8956 51.3495 31.9592L51.3929 32.0389H51.4948L51.4323 31.939ZM51.2506 31.7523H51.1507V31.5979H51.2435C51.2839 31.5979 51.3102 31.601 51.3263 31.606C51.3394 31.6131 51.3515 31.6201 51.3596 31.6332C51.3687 31.6464 51.3727 31.6575 51.3727 31.6746C51.3727 31.6968 51.3636 31.716 51.3485 31.7301C51.3293 31.7473 51.298 31.7523 51.2506 31.7523Z" fill="#5E5E5E"/>
<path d="M45.7301 26.123C45.0328 26.123 44.515 27.0747 44.515 27.0747L44.6543 26.1997H43.2031L42.2312 32.2368H43.8298C44.2849 29.6573 44.3677 27.5652 45.4486 27.9477C45.6393 26.9506 45.823 26.5641 46.0299 26.1432C46.0299 26.1442 45.933 26.123 45.7301 26.123Z" fill="#5E5E5E"/>
<path d="M49.7469 24.8175L49.4109 26.9015C49.4109 26.9015 48.8255 26.0911 47.9072 26.0911C46.4791 26.0921 45.2903 27.8128 45.2903 29.7888C45.2903 31.0655 45.9251 32.3159 47.2209 32.3159C48.1544 32.3159 48.6711 31.665 48.6711 31.665L48.6035 32.221H50.1183L51.3092 24.8145L49.7469 24.8175ZM47.7719 30.8021C47.2108 30.8021 46.9484 30.3318 46.9484 29.593C46.9484 28.385 47.4904 27.5888 48.1756 27.5888C48.7347 27.5898 49.0223 27.9743 49.0223 28.8805C49.0223 29.7031 48.6156 30.8021 47.7719 30.8021Z" fill="#5E5E5E"/>
<path d="M55.5326 10.0303H1.46739C0.655984 10.0303 0 10.6873 0 11.4977V45.5029C0 46.3133 0.655984 46.9703 1.46739 46.9703H55.5326C56.344 46.9703 57 46.3133 57 45.5029V11.4977C57 10.6873 56.344 10.0303 55.5326 10.0303ZM51.8823 36.854C51.8399 36.9307 51.7824 36.9892 51.7077 37.0306C51.633 37.072 51.5543 37.0932 51.4736 37.0932C51.3908 37.0932 51.3121 37.072 51.2374 37.0306C51.1638 36.9892 51.1052 36.9307 51.0618 36.854C51.0205 36.7803 50.9993 36.7016 50.9993 36.6199C50.9993 36.5381 51.0204 36.4604 51.0628 36.3837C51.1042 36.307 51.1648 36.2495 51.2394 36.2081C51.3151 36.1687 51.3918 36.1475 51.4726 36.1475C51.5523 36.1475 51.629 36.1687 51.7037 36.2081C51.7794 36.2495 51.8389 36.307 51.8803 36.3837C51.9227 36.4604 51.9429 36.5391 51.9429 36.6199C51.9429 36.7006 51.9247 36.7823 51.8823 36.854ZM52.94 28.5008C52.942 36.5795 46.3963 43.1313 38.3166 43.1333C34.5381 43.1343 31.0927 41.7022 28.497 39.3498C25.9013 41.6982 22.4629 43.1292 18.6905 43.1292C10.6158 43.1292 4.06206 36.5765 4.06206 28.5008C4.06206 20.4574 10.5644 13.9238 18.5967 13.8713C18.6279 13.8713 18.6592 13.8713 18.6905 13.8713C22.4629 13.8713 25.9023 15.3024 28.498 17.6508C31.0927 15.3014 34.534 13.8693 38.3095 13.8683C46.3892 13.8653 52.94 20.414 52.942 28.4937C52.94 28.4957 52.94 28.4967 52.94 28.5008Z" fill="#5E5E5E"/>
<path d="M26.999 37.751C27.4622 38.3182 27.9527 38.8591 28.4947 39.3496C28.5068 39.3385 28.5199 39.3284 28.532 39.3183C28.532 39.3183 28.531 39.3183 28.531 39.3173H28.534C29.0669 38.8318 29.5644 38.3091 30.0196 37.751H26.999Z" fill="#5E5E5E"/>
<path d="M28.9915 29.7212C28.9915 29.7212 29.1964 28.712 29.1964 28.3012C29.1964 27.2749 28.6857 26.0234 26.9761 26.0234C25.4098 26.0244 24.2502 27.7118 24.2502 29.6192C24.2502 31.8203 25.7025 32.3431 26.9408 32.3431C28.0832 32.3431 28.5858 32.0868 28.5858 32.0868L28.8603 30.5851C28.8603 30.5851 27.9914 30.9686 27.2062 30.9686C25.534 30.9686 25.8266 29.7212 25.8266 29.7212H28.9915ZM26.9812 27.4212C27.8602 27.4212 27.6977 28.4092 27.6977 28.4879H25.9689C25.9689 28.386 26.1324 27.4212 26.9812 27.4212Z" fill="#5E5E5E"/>
<path d="M36.2964 26.231C37.0887 26.231 37.7255 26.6761 37.7255 26.6761L37.9798 25.026C37.9798 25.026 37.0372 24.6445 36.2258 24.6445C34.4284 24.6445 32.6794 26.2048 32.6794 29.1345C32.6794 31.0772 33.6231 32.3599 35.482 32.3599C36.0068 32.3599 36.8444 32.147 36.8444 32.147L37.123 30.4475C37.123 30.4475 36.36 30.83 35.8352 30.83C34.7291 30.829 34.2861 29.9853 34.2861 29.081C34.2861 27.2412 35.2368 26.231 36.2964 26.231Z" fill="#5E5E5E"/>
<path d="M25.0469 34.6777C25.3002 35.2217 25.5949 35.7394 25.9108 36.244H31.1011C31.416 35.7414 31.6996 35.2187 31.9529 34.6777H25.0469Z" fill="#5E5E5E"/>
<path d="M32.6507 26.1251C31.9533 26.1251 31.4366 27.0768 31.4366 27.0768L31.5769 26.2018H30.1266L29.1548 32.2389H30.7534C31.2065 29.6604 31.2913 27.5673 32.3721 27.9498C32.5619 26.9517 32.7445 26.5652 32.9514 26.1433C32.9514 26.1433 32.8545 26.1231 32.6507 26.1251Z" fill="#5E5E5E"/>
</svg>
