<svg width="18" height="18" viewBox="0 0 18 18" fill="none" xmlns="http://www.w3.org/2000/svg">
<g clip-path="url(#clip0)">
<path d="M18 2.88687C17.3306 3.23105 16.6174 3.45918 15.8737 3.56995C16.6388 3.03456 17.2226 2.19325 17.4971 1.17918C16.7839 1.67764 15.9964 2.02973 15.1571 2.22621C14.4799 1.38094 13.5146 0.857422 12.4616 0.857422C10.4186 0.857422 8.77387 2.80116 8.77387 5.18402C8.77387 5.52687 8.79862 5.85654 8.85938 6.17039C5.7915 5.995 3.07687 4.27149 1.25325 1.64599C0.934875 2.29347 0.748125 3.03456 0.748125 3.83237C0.748125 5.33039 1.40625 6.6583 2.38725 7.42709C1.79437 7.4139 1.21275 7.21215 0.72 6.89434C0.72 6.90753 0.72 6.92467 0.72 6.94182C0.72 9.04379 1.99912 10.7897 3.6765 11.1919C3.37612 11.2882 3.04875 11.3343 2.709 11.3343C2.47275 11.3343 2.23425 11.3185 2.01038 11.2605C2.4885 12.9735 3.84525 14.2328 5.4585 14.2737C4.203 15.4249 2.60888 16.1185 0.883125 16.1185C0.5805 16.1185 0.29025 16.1027 0 16.0592C1.63462 17.2948 3.57188 18.0003 5.661 18.0003C12.4515 18.0003 16.164 11.4069 16.164 5.69171C16.164 5.5005 16.1584 5.31588 16.1505 5.13259C16.8829 4.52336 17.4982 3.76248 18 2.88687Z" fill="#C2C2C2"/>
</g>
<defs>
<clipPath id="clip0">
<rect width="18" height="18" fill="white"/>
</clipPath>
</defs>
</svg>
