<svg width="53" height="39" viewBox="0 0 53 39" fill="none" xmlns="http://www.w3.org/2000/svg">
<path d="M49.9653 0.950195H3.03474C1.3604 0.950195 0 2.31059 0 3.98493V35.0158C0 36.6901 1.3604 38.0505 3.03474 38.0505H49.9653C51.6396 38.0505 53 36.6901 53 35.0158V3.98166C53 2.3106 51.6396 0.950195 49.9653 0.950195ZM49.8868 34.934L3.11322 35.0125L3.03474 4.06015L49.8868 3.98166V34.934Z" fill="#5E5E5E"/>
<path d="M7.5309 15.2112L9.10387 26.4803H12.966L20.1669 12.5264H16.1086L13.051 18.9981C12.6193 19.917 12.2433 20.7476 11.9195 21.5096C11.8606 20.7149 11.7952 19.9432 11.7167 19.155L11.0987 12.5296H4.92456L11.3439 17.6082L7.5309 15.2112Z" fill="#5E5E5E"/>
<path d="M22.9402 26.4842L25.5857 12.5303H21.9526L19.3037 26.4842H22.9402Z" fill="#5E5E5E"/>
<path d="M25.0689 25.6594C25.9192 26.2971 27.4169 26.6765 29.0749 26.6765C32.5119 26.6765 34.8206 24.734 34.8206 21.8464C34.8206 20.2669 33.8985 19.0144 32.005 18.0235C30.9455 17.4284 30.3012 17.0294 30.3012 16.5258C30.3012 16.0549 30.795 15.548 31.9658 15.548C33.1071 15.548 33.9769 15.996 34.1437 16.0843L34.5558 16.3099L35.7167 13.2033L35.4126 13.0332C34.5427 12.5525 33.4635 12.3203 32.1129 12.3203C28.8231 12.3203 26.5242 14.2432 26.5242 16.9967C26.5242 18.9915 28.0939 20.1001 29.4739 20.8457C30.7689 21.5194 31.024 21.902 31.024 22.3369C31.024 23.1741 30.1214 23.4717 29.3464 23.4717C28.3359 23.4717 27.2829 23.1872 26.4555 22.6901L26.0467 22.4481L24.8171 25.4763L25.0689 25.6594Z" fill="#5E5E5E"/>
<path d="M38.3263 26.4842L39.8862 23.0734H43.0321L43.3068 26.4842H47.0806L45.4455 12.5303H41.2237L34.4348 26.4842H38.3263ZM42.1198 17.864C42.2637 17.55 42.4108 17.1903 42.5612 16.8208C42.5874 17.1511 42.6103 17.4617 42.6299 17.7299L42.8425 20.1138H41.0766L42.1198 17.864Z" fill="#5E5E5E"/>
</svg>
